# xmcd
#
# Track frame offsets:
#   150
#   23357
#   38845
#   55784
#   73778
#   93588
#   105659
#   123372
#   146226
#   165075
#   184335
#   205605
#   222751
#   235550
#   253743
#   276908
#   297864
#   315359
#   340040
#
# Disc length: 4757 seconds
#
# Revision: 0
# Processed by: cddbd v1.5.2PL0 Copyright (c) Steve Scherf et al.
# Submitted via: GXTranscoder 2.0.1939
#
DISCID=09129313
DTITLE=Joe Cocker - the ultimate
DYEAR=1900
DGENRE=Blues
TTITLE0=with a little help from my friend
TTITLE1=night calls
TTITLE2=many rivers to cross
TTITLE3=cry me a river
TTITLE4=the letter
TTITLE5=you are so beautiful
TTITLE6=up where we belong
TTITLE7=unchain my heart
TTITLE8=feelin' alright
TTITLE9=you can leave your heat on
TTITLE10=when the night comes (radio édit)
TTITLE11=summer in the city (radio édit)
TTITLE12=delta lady
TTITLE13=never tear us apart
TTITLE14=don't you love me anymore
TTITLE15=n'oubliez jamais
TTITLE16=civilized man
TTITLE17=don't let the sun go down on me
TTITLE18=first whe take manhattan
EXTD=
EXTT0=
EXTT1=
EXTT2=
EXTT3=
EXTT4=
EXTT5=
EXTT6=
EXTT7=
EXTT8=
EXTT9=
EXTT10=
EXTT11=
EXTT12=
EXTT13=
EXTT14=
EXTT15=
EXTT16=
EXTT17=
EXTT18=
PLAYORDER=
